<svg xmlns="http://www.w3.org/2000/svg" width="640" height="180" viewBox="0 0 640 180" fill="none" role="img" aria-labelledby="title desc">
  <title id="title">fitora logo</title>
  <desc id="desc">fitora wordmark with circular blue and teal fitness mark.</desc>
  <defs>
    <linearGradient id="fitoraGradient" x1="20" y1="154" x2="153" y2="19" gradientUnits="userSpaceOnUse">
      <stop offset="0" stop-color="#2563EB"/>
      <stop offset="0.48" stop-color="#0891FF"/>
      <stop offset="0.78" stop-color="#06B6D4"/>
      <stop offset="1" stop-color="#2DD4BF"/>
    </linearGradient>
  </defs>
  <g transform="translate(20 19) scale(.56)">
    <path d="M128 29.5c49.4 0 91.5 36.6 98 85.3 1 7.6-4.7 14.5-12.3 15.1-6.9.6-12.9-4.3-14-11.1C194.1 83.3 163.7 56 128 56c-39.8 0-72 32.2-72 72 0 15.2 4.7 29.3 12.8 40.9 4.2 6 2.8 14.2-3 18.6-6.1 4.5-14.8 3.1-19.1-3.1C35.9 168.5 29.5 149.1 29.5 128c0-54.4 44.1-98.5 98.5-98.5Z" fill="url(#fitoraGradient)"/>
    <path d="M213.1 131.8c7.7.4 13.4 7.3 12.4 14.9-6.2 48.9-48.5 85.8-98.2 85.8-25.7 0-49.1-9.8-66.7-25.8-5.4-4.9-5.8-13.2-1-18.6 4.9-5.5 13.4-5.9 18.8-.9 12.9 11.9 30.1 19.2 48.9 19.2 35.9 0 66.4-27.5 71.8-63.2 1.1-6.9 7.1-11.8 14-11.4Z" fill="url(#fitoraGradient)"/>
    <circle cx="93.5" cy="105.5" r="19.5" fill="url(#fitoraGradient)"/>
    <path d="M84.3 163.5c8.8-28 33.2-44.5 60-48.3 9.1-1.3 16.6-6.7 21.8-14.3l13.7-20.1c4.2-6.2 13.9-3.4 14.2 4.1.8 20.9-8.3 43-26.4 57.7-14.9 12.2-33.5 16.9-51.8 18.7-10.7 1-20.4 6.7-26.5 15.6-2.1 3.2-7.2 1.2-5-13.4Z" fill="url(#fitoraGradient)"/>
    <path d="M193.7 42.7 201 62.9l20.2 7.3L201 77.5l-7.3 20.2-7.3-20.2-20.2-7.3 20.2-7.3 7.3-20.2Z" fill="url(#fitoraGradient)"/>
  </g>
  <text x="180" y="118" fill="#0F172A" font-family="Manrope, Arial, sans-serif" font-size="96" font-weight="800" letter-spacing="-6">fitora</text>
</svg>
