<svg xmlns="http://www.w3.org/2000/svg" width="250" height="250" fill="none" viewBox="0 0 250 250">
  <path d="m240.8 113.4-14.72-3.99c-1.34-7.77-2.74-13.81-5.25-21.14l10.99-10.7c-3.98-8.84-6.27-13.32-12.81-21.52l-14.36 4.12c-5.84-6.89-8.39-9.77-16.17-15.37l3.84-14.45c-7.59-5.54-11.98-8.13-21.12-12.43l-9.95 10.97c-8.16-2.74-13.6-4.42-21.81-6.23l-3.47-14.04c-8.23-0.51-14.76-0.5-23.26 0.05l-4.21 13.72c-8.28 1.37-12.64 2.68-20.68 6.01l-10.68-10.9c-8.5 4.18-13.6 7.37-21.47 13.11l3.97 14.47c-7.41 6.64-9.99 9.47-15.12 15.21l-14.81-4.71c-6.25 8.55-8.57 13-13.06 21.73l11.3 11.16c-3.03 7.61-4.25 13.46-5.9 20.94l-13.62 3.74c-0.95 9.02-0.97 15.02 0.08 23.27l13.78 3.49c1.53 8.26 2.8 13.6 5.72 22.38l-11.27 9.71c4.61 9.07 7.26 13.64 12.99 20.94l15.03-4c5.32 6.51 9.01 10.24 15.31 15.38l-4.12 14.19c8.13 5.99 13.09 8.94 21.31 12.47l10.58-11c7.65 2.92 12.72 4.17 21.02 5.62l3.68 14.85c8.64 0.55 14.91 0.32 23.11-0.05l3.69-15c7.87-1.64 13.77-3.32 21.6-6.01l10.32 11.66c8.74-4.45 13.97-7.46 21.26-12.8l-4.17-14.4c6.99-6.16 10.5-9.77 15.73-15.01l14.84 4.11c5.93-8.25 8.73-12.8 12.93-21.09l-11.88-10.41c3.14-7.96 4.51-13.35 5.92-21.68l14.75-3.36c0.86-7.79 0.77-14.55 0.16-23.01zm-116.9 96.37c-0.1 0-0.2-0.01-0.3-0.01l22.29-42.31c2.78-5.26 1.3-10.78-1.97-12.08l-19.71-17.42 12.65-23.1c2.81 2.42 7.98 9 11.39 12.3 3.94 3.85 9.02 1.79 10.76 0.15l22.63-17.13c3.46-2.54 2.88-7.8-0.17-9.45-2.2-1.13-4.58-1.09-6.83 0.61l-19.74 13.55c-1.22 0.88-2.5-1.43-6.14-5.7-8.91-10.48-14.28-18.96-24.48-19.19l-27.31 0.38c-3.01 0-4.84 1.83-6.69 3.68l-17.6 17.42c-3.24 3.21-2.18 9.04 2.32 10.03 2.44 0.55 4.88-0.15 6.45-1.79l17.53-15.23 14.42-0.29-11.3 23.75c-3.7 7.64-1.3 17.16 5.79 21.94l21.02 16.23-17.7 42.69c-25.13-3.37-44.56-16.15-58.55-37.31h36.5c5.56 0 8.01-3.76 17.37-15.26-5.19-3.97-9.34-7.81-11.36-15.86l-11.22 16.09h-39.11c-4.24-9.96-6.7-20.35-6.7-31.38 0-46.8 38.26-86.38 85.44-86.38 47.17 0 86.31 37.01 86.31 85.6 0 46.48-37.38 85.47-85.99 85.47z" fill="url(#paint0_linear_590_10286)"/>
  <path d="m144.1 59.87c-9.7 0-15.2 7.59-15.2 14.74 0 9.3 7.19 15.16 15.71 15.16 9.19 0 14.57-8.69 14.34-15.26-0.25-7.72-6.7-14.64-14.85-14.64z" fill="url(#paint0_linear_590_10286)"/>
  <defs>
    <linearGradient id="paint0_linear_590_10286" x1="28.71" x2="206.1" y1="207" y2="38.15" gradientUnits="userSpaceOnUse">
      <stop stop-color="#2063AF" offset="0"/>
      <stop stop-color="#2398B9" offset=".4844"/>
      <stop stop-color="#24BCB5" offset="1"/>
    </linearGradient>
  </defs>
</svg>
