<svg xmlns="http://www.w3.org/2000/svg" width="256" height="256" viewBox="0 0 256 256" fill="none" role="img" aria-labelledby="title desc">
  <title id="title">fitora app icon</title>
  <desc id="desc">Rounded fitora app icon with blue and teal fitness mark.</desc>
  <defs>
    <linearGradient id="bg" x1="24" y1="232" x2="230" y2="24" gradientUnits="userSpaceOnUse">
      <stop stop-color="#FFFFFF"/>
      <stop offset="0.58" stop-color="#F8FBFF"/>
      <stop offset="1" stop-color="#EAF5FF"/>
    </linearGradient>
    <linearGradient id="fitoraGradient" x1="52" y1="204" x2="204" y2="52" gradientUnits="userSpaceOnUse">
      <stop offset="0" stop-color="#2563EB"/>
      <stop offset="0.48" stop-color="#0891FF"/>
      <stop offset="0.78" stop-color="#06B6D4"/>
      <stop offset="1" stop-color="#2DD4BF"/>
    </linearGradient>
  </defs>
  <rect width="256" height="256" rx="58" fill="url(#bg)"/>
  <path d="M128 43c42.6 0 78.9 31.6 84.5 73.5.8 6.6-4 12.5-10.6 13-6 .5-11.1-3.7-12.1-9.5C185 89.4 158.8 65.9 128 65.9c-34.3 0-62.1 27.8-62.1 62.1 0 13.1 4 25.2 11.1 35.3 3.6 5.2 2.4 12.2-2.6 16-5.3 3.9-12.8 2.7-16.5-2.7-9.4-13.7-14.9-30.4-14.9-48.6C43 81.1 81.1 43 128 43Z" fill="url(#fitoraGradient)"/>
  <path d="M201.4 131.2c6.7.4 11.6 6.3 10.7 12.9-5.3 42.2-41.8 73.9-84.7 73.9-22.2 0-42.3-8.4-57.5-22.2-4.6-4.2-5-11.4-.8-16.1 4.2-4.8 11.5-5.1 16.2-.8 11.1 10.3 25.9 16.5 42.1 16.5 31 0 57.3-23.7 61.9-54.5 1-6 6.1-10.2 12.1-9.7Z" fill="url(#fitoraGradient)"/>
  <circle cx="98.2" cy="108.7" r="16.8" fill="url(#fitoraGradient)"/>
  <path d="M90.2 158.8c7.6-24.2 28.6-38.4 51.7-41.7 7.9-1.1 14.3-5.8 18.8-12.3L172.5 87c3.7-5.3 12-2.9 12.3 3.5.7 18.1-7.2 37.1-22.8 49.8-12.9 10.5-28.9 14.6-44.7 16.1-9.2.9-17.6 5.8-22.8 13.5-1.9 2.8-6.2 1-4.3-11.1Z" fill="url(#fitoraGradient)"/>
  <path d="M184.8 47.3 191 64.8l17.7 6.4-17.7 6.4-6.2 17.5-6.4-17.5-17.5-6.4 17.5-6.4 6.4-17.5Z" fill="url(#fitoraGradient)"/>
</svg>
